HIERARCHY
ROOT Hips
{
	OFFSET 0.000000 0.000000 0.000000
	CHANNELS 6 Xposition Yposition Zposition Yrotation Xrotation Zrotation
	JOINT Chest
	{
		OFFSET 0.000000 -0.009281 11.569106
		CHANNELS 3 Yrotation Xrotation Zrotation
		JOINT Chest2
		{
			OFFSET -0.000000 0.016865 9.269641
			CHANNELS 3 Yrotation Xrotation Zrotation
			JOINT Chest3
			{
				OFFSET -0.000000 0.000001 8.374491
				CHANNELS 3 Yrotation Xrotation Zrotation
				JOINT Chest4
				{
					OFFSET -0.000000 0.000001 8.374493
					CHANNELS 3 Yrotation Xrotation Zrotation
					JOINT Neck
					{
						OFFSET -0.000000 0.000002 12.152554
						CHANNELS 3 Yrotation Xrotation Zrotation
						JOINT Head
						{
							OFFSET -0.000000 0.040101 7.802319
							CHANNELS 3 Yrotation Xrotation Zrotation
							End Site
							{
								OFFSET -0.000000 0.020947 14.853096
							}
						}
					}
					JOINT RightCollar
					{
						OFFSET 2.894404 0.000001 6.791374
						CHANNELS 3 Yrotation Xrotation Zrotation
						JOINT RightShoulder
						{
							OFFSET 13.574684 0.000001 0.000000
							CHANNELS 3 Yrotation Xrotation Zrotation
							JOINT RightElbow
							{
								OFFSET 23.923903 0.000002 0.000000
								CHANNELS 3 Yrotation Xrotation Zrotation
								JOINT RightWrist
								{
									OFFSET 19.846718 0.012767 0.000000
									CHANNELS 3 Yrotation Xrotation Zrotation
									End Site
									{
										OFFSET 14.973145 0.000001 0.000000
									}
								}
							}
						}
					}
					JOINT LeftCollar
					{
						OFFSET -2.894404 0.000001 6.791374
						CHANNELS 3 Yrotation Xrotation Zrotation
						JOINT LeftShoulder
						{
							OFFSET -13.574684 -0.000001 0.000000
							CHANNELS 3 Yrotation Xrotation Zrotation
							JOINT LeftElbow
							{
								OFFSET -23.923903 -0.000002 0.000000
								CHANNELS 3 Yrotation Xrotation Zrotation
								JOINT LeftWrist
								{
									OFFSET -19.846718 0.012763 0.000000
									CHANNELS 3 Yrotation Xrotation Zrotation
									End Site
									{
										OFFSET -14.973145 -0.000001 0.000000
									}
								}
							}
						}
					}
				}
			}
		}
	}
	JOINT RightHip
	{
		OFFSET 9.469263 0.004643 0.045487
		CHANNELS 3 Yrotation Xrotation Zrotation
		JOINT RightKnee
		{
			OFFSET 0.000000 0.002661 -40.478676
			CHANNELS 3 Yrotation Xrotation Zrotation
			JOINT RightAnkle
			{
				OFFSET 0.000000 0.049106 -35.224068
				CHANNELS 3 Yrotation Xrotation Zrotation
				JOINT RightToe
				{
					OFFSET -0.000001 12.539529 -6.151390
					CHANNELS 3 Yrotation Xrotation Zrotation
					End Site
					{
						OFFSET -0.000001 5.044994 -1.291870
					}
				}
			}
		}
	}
	JOINT LeftHip
	{
		OFFSET -9.469263 0.004641 0.045487
		CHANNELS 3 Yrotation Xrotation Zrotation
		JOINT LeftKnee
		{
			OFFSET 0.000000 0.002661 -40.478676
			CHANNELS 3 Yrotation Xrotation Zrotation
			JOINT LeftAnkle
			{
				OFFSET 0.000000 0.049106 -35.224068
				CHANNELS 3 Yrotation Xrotation Zrotation
				JOINT LeftToe
				{
					OFFSET -0.000001 12.539529 -6.151390
					CHANNELS 3 Yrotation Xrotation Zrotation
					End Site
					{
						OFFSET -0.000001 5.044994 -1.291870
					}
				}
			}
		}
	}
}
MOTION
Frames: 8
Frame Time: 0.016667
9.243070 3.030888 82.958809 -8.656280 -2.048691 -104.127211 -4.321628 -2.720771 5.666749 -1.853376 -1.260651 2.479230 -1.853375 -1.260652 2.479230 -1.384888 -0.953036 1.855544 7.858916 -18.308781 -8.672590 11.574806 2.422865 -13.337672 0.856592 -1.860549 2.305309 35.539448 -1.754383 57.608097 11.534264 -25.417994 27.467669 19.825521 -0.263871 -15.323442 -10.487266 -0.917472 -6.152284 -65.730162 3.751045 -24.398464 -23.705633 12.741936 -39.477848 58.554133 35.923578 -19.336523 0.690786 -10.460472 -4.544131 1.734289 -4.105122 -0.444028 -1.771021 6.248067 -3.677014 -0.120230 0.085895 -0.017316 0.400154 -10.418396 -1.105137 0.382948 -2.331512 2.240590 -0.871199 4.013225 -0.566628 0.013541 -0.146857 0.023718 
9.232556 2.979375 82.954399 -8.621880 -2.099433 -104.213551 -4.415637 -2.635260 5.622544 -1.899492 -1.222732 2.460985 -1.899493 -1.222732 2.460984 -1.419668 -0.924727 1.841888 7.968788 -18.471897 -8.875004 11.717865 2.129376 -13.677696 0.222549 -2.183101 2.478457 35.224184 -1.651817 59.332836 12.437780 -23.186448 27.287460 20.689179 0.191827 -15.706691 -10.765889 -1.201365 -6.085895 -65.651006 3.242585 -24.447498 -22.347916 12.048723 -38.076013 56.425432 35.900984 -22.467398 0.782891 -10.447275 -4.495569 1.702304 -4.068574 -0.418493 -1.742617 6.218165 -3.643309 -0.135273 0.082805 -0.019607 0.499135 -10.470023 -0.967361 0.349418 -2.210844 2.237356 -0.902905 3.977030 -0.599838 0.021891 -0.140838 0.026214 
9.230017 2.929509 82.951889 -8.577482 -2.145173 -104.327731 -4.490487 -2.501577 5.568418 -1.937516 -1.162935 2.439050 -1.937516 -1.162935 2.439049 -1.448474 -0.879961 1.825559 8.034733 -18.689416 -9.034169 11.798067 1.732718 -13.954389 -0.389613 -2.558277 2.630956 34.910910 -1.468523 61.037412 13.448913 -20.894105 27.456548 21.202131 0.581083 -15.877289 -11.044848 -1.528880 -6.024827 -65.432242 2.758050 -24.480979 -20.979636 11.512008 -36.360553 54.506235 35.250743 -25.357234 0.867773 -10.432581 -4.450533 1.662585 -4.018642 -0.369462 -1.706178 6.182806 -3.608902 -0.148496 0.079549 -0.022453 0.590170 -10.530872 -0.828504 0.310805 -2.067223 2.258805 -0.931466 3.937391 -0.632687 0.030200 -0.135172 0.029181 
9.232269 2.881203 82.950012 -8.531190 -2.186276 -104.483494 -4.546718 -2.344626 5.506936 -1.968432 -1.093226 2.413868 -1.968433 -1.093226 2.413867 -1.471990 -0.827719 1.806846 8.051950 -18.940108 -9.134770 11.810618 1.271567 -14.140550 -1.002437 -2.973586 2.768453 34.684182 -1.049454 62.788051 14.569374 -18.868193 27.915958 21.445674 0.985505 -15.959224 -11.330000 -1.753505 -5.977973 -65.118060 2.221630 -24.385580 -19.488831 11.172226 -34.403157 52.524390 34.140127 -27.628527 0.940090 -10.410856 -4.352674 1.620323 -3.974764 -0.328705 -1.665837 6.151047 -3.586402 -0.159592 0.073839 -0.024633 0.667132 -10.601531 -0.709968 0.269883 -1.915526 2.317670 -0.953011 3.900374 -0.640935 0.034587 -0.128523 0.031479 
9.236221 2.838248 82.948227 -8.480418 -2.223379 -104.685872 -4.604817 -2.212887 5.433234 -2.000228 -1.035207 2.383592 -2.000228 -1.035207 2.383592 -1.496119 -0.784230 1.784280 8.036275 -19.185284 -9.166320 11.785481 0.817947 -14.210728 -1.530804 -3.292989 2.985311 34.470974 -0.332307 64.530002 15.808558 -17.226435 28.609219 21.462435 1.406884 -16.020579 -11.528287 -1.954649 -5.906582 -64.773928 1.702073 -24.365692 -18.045858 11.019857 -32.337845 50.262741 33.232497 -28.939874 1.003457 -10.376824 -4.176045 1.567053 -3.935006 -0.303955 -1.617040 6.116306 -3.579729 -0.168354 0.067067 -0.026204 0.724082 -10.665093 -0.628243 0.237662 -1.780649 2.416086 -0.971331 3.876153 -0.618298 0.035024 -0.120846 0.031897 
9.241235 2.801724 82.946762 -8.431243 -2.255002 -104.929628 -4.693005 -2.086085 5.348526 -2.045327 -0.979322 2.350030 -2.045327 -0.979322 2.350029 -1.530219 -0.742379 1.759225 8.018472 -19.436254 -9.140403 11.775275 0.352559 -14.176784 -1.906123 -3.510118 3.241427 34.093664 0.556888 66.279008 17.161567 -15.730255 29.508876 21.493120 1.903797 -15.963257 -11.637340 -2.114172 -5.833872 -64.422617 1.377656 -24.267570 -16.983370 10.976937 -30.376399 47.723239 32.635057 -29.377610 1.048500 -10.337226 -3.989178 1.512016 -3.901402 -0.280680 -1.561454 6.083491 -3.528390 -0.174729 0.056841 -0.027818 0.755153 -10.717970 -0.586922 0.215754 -1.679187 2.559004 -0.982827 3.867260 -0.561869 0.030742 -0.107908 0.031125 
9.248425 2.774475 82.946037 -8.377638 -2.277444 -105.201914 -4.728138 -1.928105 5.258062 -2.066766 -0.908668 2.315558 -2.066766 -0.908668 2.315558 -1.546625 -0.689353 1.733582 7.952592 -19.713357 -9.088648 11.687047 -0.163855 -14.111820 -2.313797 -3.615287 3.485872 33.483708 1.263149 67.923458 18.567558 -14.001936 30.596328 21.484025 2.475786 -15.809900 -11.801263 -2.415011 -5.742743 -64.089127 1.313686 -24.092242 -16.430411 11.002468 -28.568849 45.354328 32.328105 -29.608802 1.067239 -10.278245 -3.829154 1.463952 -3.891250 -0.241653 -1.497815 6.057197 -3.435616 -0.181453 0.047937 -0.030497 0.764674 -10.752007 -0.565049 0.196336 -1.609725 2.728607 -0.986562 3.870817 -0.488137 0.025201 -0.090088 0.030023 
9.256452 2.750554 82.946213 -8.327470 -2.298672 -105.483379 -4.745422 -1.803059 5.150492 -2.080243 -0.852005 2.273379 -2.080244 -0.852005 2.273379 -1.557010 -0.646762 1.702126 7.870279 -19.971531 -8.989892 11.582367 -0.646842 -13.965741 -2.675528 -3.555693 3.702046 32.654649 1.851050 69.491649 20.040222 -12.021196 31.893254 21.312967 3.101747 -15.614707 -11.951667 -2.721701 -5.641357 -63.706848 1.390037 -23.931987 -16.086465 11.175266 -26.634910 43.426073 31.894996 -30.216832 1.078528 -10.209887 -3.683142 1.411995 -3.906860 -0.177922 -1.434924 6.040765 -3.356595 -0.181890 0.040128 -0.031901 0.767153 -10.773257 -0.540427 0.180049 -1.575732 2.885066 -0.986370 3.890095 -0.406699 0.017841 -0.070783 0.029377 
